<svg xmlns="http://www.w3.org/2000/svg" aria-labelledby="title desc" viewBox="0 0 221 71">
    <defs>
        <linearGradient id="color_a" x1="0" x2="34" y1="6" y2="74" gradientUnits="userSpaceOnUse">
            <stop offset="0" stop-color="#06b6d4" />
            <stop offset=".5" stop-color="#3b82f6" />
            <stop offset="1" stop-color="#a855f7" />
        </linearGradient>
        <linearGradient id="color_b" x1="60" x2="210" y1="20" y2="70" gradientUnits="userSpaceOnUse">
            <stop offset="0" stop-color="#06b6d4" />
            <stop offset=".4" stop-color="#3b82f6" />
            <stop offset="1" stop-color="#a855f7" />
        </linearGradient>
        <linearGradient id="color_c" x1="245" x2="245" y1="19" y2="71" gradientUnits="userSpaceOnUse">
            <stop offset="0" stop-color="#f97316" />
            <stop offset="1" stop-color="#ec4899" />
        </linearGradient>
    </defs>
    <g>
        <path fill="none" stroke="url(#color_a)" stroke-linecap="round" stroke-width="8" d="m8.294072,7.348576l0,56.236282">
            <animate attributeName="opacity" dur="10s" keyTimes="0;0.05;0.1;0.15;0.2;1" repeatCount="indefinite" values="1;0;1;0;1;1" />
        </path>
        <path fill="none" stroke="url(#color_c)" stroke-linecap="round" stroke-linejoin="round" stroke-width="10" d="m26.000006,8.290237l21.529409,27.176472l-21.529409,27.176487" />
        <path fill="url(#color_b)" fill-rule="evenodd"
            d="m81.970131,50.993347c17.421997,-0.212002 20.610001,0.765007 21.114998,-2.067001c1.292,-7.239994 -14.206001,-0.419998 -21.300003,-5.604996c-4.473999,-3.27 -6.892998,-15.866003 5.962006,-17.378996c1.382996,-0.161995 21.642998,-0.051998 21.676994,-0.047005c0.746002,0.112007 0.357002,6.715002 0.260002,6.818007c-0.390999,0.412991 -13.125999,0.061005 -20.026001,0.188988c-3.698997,0.068012 -3.472,2.906006 -3.030998,3.954018c1.981003,4.709991 23.360001,-3.872013 24.502998,9.874985c1.048004,12.615036 -11.033997,11.31604 -15.153999,11.314034c-16.354996,-0.007996 -16.351997,0.02 -16.486,-0.014999c-0.706001,-0.187 -0.299995,-6.808025 -0.238998,-6.878029c0.156998,-0.175003 2.501999,-0.160004 2.720001,-0.159004" />
        <path fill="url(#color_b)" fill-rule="evenodd"
            d="m127.270126,26.102064c2.348007,-0.248995 13.796005,-0.402994 13.994003,0.106001c0.158005,0.403999 0.065994,6.240002 0.056992,6.313004c-0.189987,1.431992 -10.834991,-0.882996 -13.939987,1.485992c-1.673004,1.277008 -1.448006,1.693008 -1.442009,21.84803c0,1.542004 0.415001,2.216 -1.129997,2.220001c-6.806999,0.023998 -6.957001,0.024998 -7.059998,-0.325001c-0.069,-0.231998 -0.038002,-9.322033 -0.035004,-10.133022c0.039001,-11.413002 -1.382996,-19.82901 9.556,-21.514006" />
        <path fill="url(#color_b)" fill-rule="evenodd"
            d="m164.366135,58.026398c-6.591995,0.516998 -6.560989,-2.364998 -10.810989,-11.611027c-0.736008,-1.599995 -8.998001,-19.575993 -9.065002,-20.066002c-0.090012,-0.662004 0.330002,-0.757994 8.326996,-0.51799c0.621994,0.019001 0.654007,0.20999 3.423004,6.763996l5.205002,12.085995c1.160995,2.696995 1.569992,4.782997 2.196991,3.125011c0.787003,-2.077007 7.833008,-18.447014 8.522003,-20.047014c0.899994,-2.089003 1.169998,-1.902 1.526993,-1.907001c0.636002,-0.007992 7.499008,-0.098 7.947006,-0.019987c0.628006,0.107992 0.328003,0.514 -2.929993,7.399998c-2.268005,4.793987 -9.550003,21.860023 -10.314011,22.691021c-1.582001,1.723003 -2.873001,1.943001 -4.028,2.103001" />
        <path fill="url(#color_b)" fill-rule="evenodd"
            d="m183.991135,46.454811c-0.222,-11.406998 -0.123993,-15.65 4.862,-18.850004c5.12001,-3.282995 18.529999,-1.067991 19.671005,-1.823996c0.707001,-0.466995 -0.261993,-12.639003 0.565002,-12.894004c0.177994,-0.053997 7.317993,-0.045998 7.462997,-0.002996c0.365005,0.110001 0.324005,0.309999 0.337997,23.410001c0.005997,11.501999 1.583008,21.737034 -12.994995,21.750034c-9.380005,0.007996 -19.291,1.311996 -19.904007,-11.589035m24.774002,-1.098999c-0.145004,6.197014 -2.459,5.637001 -11.735001,5.604c-5.604004,-0.019997 -4.955002,-3.707001 -4.917999,-13.018002c0.022995,-5.807995 3.701004,-5.081001 14.255005,-5.040001c0.188004,0.000999 2.213989,0.010002 2.328003,0.303001c0.003998,0.013 0.087997,0.012001 0.069992,12.151001" />
        <path fill="url(#color_b)" fill-rule="evenodd"
            d="m70.783585,27.019821c-0.056,30.50304 0.290001,30.866039 -0.364998,31.023037c-0.006004,0.000999 -7.350014,0.125999 -7.640011,-0.063995c-0.348,-0.226006 -0.219002,-2.157005 -0.243,-26.56604c-0.005001,-4.406006 0.274998,-5.441998 4.590012,-5.470993c3.028999,-0.020012 3.027,-0.028011 3.286995,0.009991c0.295006,0.044006 0.365005,0.977997 0.372002,1.068001" />
        <path fill="url(#color_b)" fill-rule="evenodd"
            d="m64.932587,22.529823c-0.306007,-0.032997 -2.733013,-0.304007 -2.802013,-2.647995c-0.16,-5.380006 0.305,-6.175008 1.742001,-6.767008c0.920006,-0.379998 5.450012,-0.141996 5.458015,-0.139997c2.875999,0.605 2.265999,4.710995 2.264999,5.257004c-0.010002,4.858999 -1.796005,4.304003 -6.663002,4.299994" />
    </g>
</svg>